 <svg width="24" height="24" xmlns="http://www.w3.org/2000/svg" xmlns:svg="http://www.w3.org/2000/svg">
                            <g>
                                <path fill="#555" d="m17,10.5l0,-3.5c0,-0.55 -0.45,-1 -1,-1l-12,0c-0.55,0
                                         -1,0.45 -1,1l0,10c0,0.55 0.45,1 1,1l12,0c0.55,0 1,-0.45 1,-1l0,
                                         -3.5l4,4l0,-11l-4,4zm-3,2.5l-3,0l0,3l-2,0l0,-3l-3,0l0,-2l3,0l0,-3l2,0l0,3l3,0l0,2z" class="featureButtons"></path>
                            </g>
                        </svg>